<?xml version="1.0" standalone="no"?>
<!DOCTYPE svg PUBLIC "-//W3C//DTD SVG 20010904//EN"
 "http://www.w3.org/TR/2001/REC-SVG-20010904/DTD/svg10.dtd">
<svg version="1.0" xmlns="http://www.w3.org/2000/svg"
 width="3000.000000pt" height="3000.000000pt" viewBox="0 0 3000.000000 3000.000000"
 preserveAspectRatio="xMidYMid meet">
<metadata>
Created by potrace 1.14, written by Peter Selinger 2001-2017
</metadata>
<g transform="translate(0.000000,3000.000000) scale(0.100000,-0.100000)"
fill="#000000" stroke="none">
<path d="M0 15000 l0 -15000 15000 0 15000 0 0 15000 0 15000 -15000 0 -15000
0 0 -15000z m17594 7695 c-843 -3239 -1534 -5894 -1534 -5899 0 -4 8 -6 18 -3
9 3 1527 739 3372 1637 1845 898 3437 1672 3538 1720 l182 89 -22 -38 c-105
-173 -11753 -18780 -11755 -18777 -2 1 607 2684 1352 5961 746 3277 1354 5962
1353 5966 -2 5 -1632 -984 -3622 -2196 -1990 -1213 -3620 -2204 -3621 -2203
-3 4 12267 19639 12270 19636 2 -2 -687 -2653 -1531 -5893z"/>
</g>
</svg>
